<svg width="16" height="16" viewBox="0 0 16 16" fill="none" xmlns="http://www.w3.org/2000/svg">
<path d="M11.3095 9.60573H10.6512L10.4179 9.38072C11.2627 8.40074 11.7271 7.14964 11.7262 5.85573C11.7262 4.78441 11.4085 3.73715 10.8133 2.84639C10.2181 1.95562 9.37216 1.26135 8.38239 0.851378C7.39262 0.441403 6.30351 0.334135 5.25278 0.543139C4.20205 0.752142 3.23689 1.26803 2.47936 2.02556C1.72183 2.7831 1.20594 3.74826 0.996935 4.79899C0.787932 5.84972 0.8952 6.93883 1.30517 7.92859C1.71515 8.91836 2.40942 9.76433 3.30018 10.3595C4.19095 10.9547 5.23821 11.2724 6.30952 11.2724C7.65119 11.2724 8.88452 10.7807 9.83452 9.96406L10.0595 10.1974V10.8557L14.2262 15.0141L15.4679 13.7724L11.3095 9.60573ZM6.30952 9.60573C4.23452 9.60573 2.55952 7.93073 2.55952 5.85573C2.55952 3.78073 4.23452 2.10573 6.30952 2.10573C8.38452 2.10573 10.0595 3.78073 10.0595 5.85573C10.0595 7.93073 8.38452 9.60573 6.30952 9.60573Z" fill="#9AA0A6"/>
</svg>
